<svg width="416" height="425" viewBox="0 0 416 425" fill="none" xmlns="http://www.w3.org/2000/svg">
<mask id="mask0_62_117" style="mask-type:luminance" maskUnits="userSpaceOnUse" x="0" y="0" width="416" height="425">
<path d="M415.835 0H0V424.97H415.835V0Z" fill="white"/>
</mask>
<g mask="url(#mask0_62_117)">
<path d="M245.034 165.667C245.303 164.566 245.439 163.063 245.439 161.129C245.439 158.247 244.835 155.64 243.627 153.297C242.419 150.96 240.808 148.973 238.797 147.325C236.785 145.674 234.505 144.404 231.96 143.511C229.411 142.618 226.859 142.175 224.314 142.175C220.827 142.175 217.472 143.2 214.253 145.261C211.035 147.325 208.554 150.551 206.813 154.948L178.845 227.514L154.302 154.948C152.825 150.551 150.452 147.325 147.158 145.261C143.874 143.201 140.488 142.175 137 142.175C134.321 142.175 131.737 142.656 129.259 143.614C126.773 144.579 124.53 145.883 122.518 147.523C120.506 149.174 118.896 151.172 117.688 153.507C116.484 155.842 115.877 158.384 115.877 161.129C115.877 162.644 116.046 164.055 116.381 165.362C116.716 166.664 117.148 167.93 117.688 169.171L160.541 276.571C162.153 280.284 164.196 283.238 166.682 285.436C169.157 287.63 173.017 288.724 178.247 288.724C183.472 288.724 187.429 287.63 190.114 285.436C192.795 283.238 195.005 280.347 196.751 276.767L243.628 169.171C244.296 167.93 244.761 166.773 245.035 165.668L245.034 165.667ZM288.287 228.333L298.549 202.153L307.197 228.33L288.287 228.333ZM360.31 261.723L316.655 154.324C315.178 150.626 313.133 147.669 310.519 145.459C307.908 143.275 304.047 142.174 298.953 142.174C293.587 142.174 289.624 143.275 287.079 145.459C284.53 147.67 282.454 150.55 280.851 154.125L232.963 261.725C232.025 263.511 231.56 266.193 231.56 269.767C231.56 272.65 232.159 275.264 233.371 277.596C234.574 279.938 236.187 281.923 238.196 283.573C240.209 285.223 242.453 286.5 244.932 287.384C247.418 288.279 249.995 288.723 252.68 288.723C256.034 288.723 259.248 287.669 262.336 285.531C265.421 283.409 267.905 280.141 269.782 275.74L276.021 259.876L317.861 259.871L323.493 275.74C326.446 284.401 332.209 288.723 340.797 288.723C343.344 288.723 345.893 288.241 348.443 287.284C350.988 286.326 353.236 285.021 355.183 283.369C357.124 281.718 358.704 279.732 359.909 277.389C361.114 275.056 361.72 272.509 361.72 269.767C361.72 266.328 361.249 263.648 360.31 261.723ZM85.703 183.187C91.8702 183.187 96.6695 181.197 100.088 177.214C103.511 173.229 105.216 168.487 105.216 162.99C105.216 157.489 103.511 152.747 100.088 148.765C96.6691 144.777 91.8698 142.791 85.703 142.791H19.3178C6.43882 142.791 0.00109863 149.52 0.00109863 162.99V267.707C0.00109863 281.175 6.43882 287.904 19.3178 287.904H85.703C91.8702 287.904 96.6695 285.915 100.088 281.923C103.511 277.946 105.216 273.204 105.216 267.707C105.216 262.208 103.511 257.5 100.088 253.58C96.6691 249.671 91.8698 247.709 85.703 247.709H38.8279V233.695H77.8577C83.4918 233.695 87.881 231.872 91.0353 228.234C94.1866 224.585 95.7583 220.288 95.7583 215.345C95.7583 210.395 94.1869 206.101 91.0353 202.463C87.881 198.824 83.4918 196.999 77.8577 196.999H38.8279V183.187H85.703Z" fill="#5BAEDC"/>
<path d="M399.768 138.39C370.845 55.5491 289.1 19.3448 282.295 16.4934C256.4 5.66803 229.655 0.40585 203.282 0.0470216C202.046 0.017344 200.804 0.0050105 199.559 0C198.317 0.0050105 197.076 0.0169586 195.839 0.0470216C169.468 0.406236 142.723 5.66842 116.824 16.4934C110.024 19.3448 43.8808 48.1644 10.7024 114.583C13.2011 113.996 15.8906 113.677 18.7389 113.604C58.7998 51.0061 125.931 14.1335 196.445 12.5428C197.481 12.5351 198.525 12.5151 199.562 12.5243C200.598 12.5151 201.638 12.5351 202.678 12.5428C283.676 14.3743 360.518 62.464 396.605 142.984C407.656 167.623 413.894 193.244 415.835 218.777C415.835 188.562 409.255 165.568 399.769 138.39H399.768Z" fill="#5BAEDC"/>
<path d="M175.761 25.0449C147.394 29.3947 121.408 39.78 98.7734 54.7109C123.037 40.8341 150.6 32.0854 180.191 30.1286C286.783 23.033 378.839 105.823 385.768 215.054C392.421 320.194 317.781 411.44 217.143 424.485C216.203 424.639 215.261 424.827 214.315 424.97C220.774 424.668 227.273 424.066 233.799 423.055C341.071 406.639 415.032 304.204 399.011 194.314C382.982 84.3965 283.029 8.60847 175.761 25.0449Z" fill="#5BAEDC"/>
</g>
</svg>
